<svg width="42" height="65" viewBox="0 0 42 65" fill="none" xmlns="http://www.w3.org/2000/svg">
	<rect width="40.9118" height="40.9169" rx="20.4559" fill="white"/>
	<path fill-rule="evenodd" clip-rule="evenodd" d="M20.461 0C11.1199 0 3.24575 6.26404 0.797379 14.8205L2.10335 14.3989C3.35309 13.9669 4.40349 13.0929 5.05264 11.9403L6.90041 8.6664C7.37577 7.82302 8.15271 7.19943 9.06254 6.86463C11.5927 5.92924 18.8356 4.1428 18.8356 4.1428L19.5358 6.17203L10.1232 9.42545C9.71679 9.56601 9.49957 10.0107 9.64014 10.4171L9.81392 10.9231C9.95193 11.3243 10.389 11.5365 10.7902 11.3985L20.3358 8.49262L21.0105 10.4477L11.6234 14.0385C11.2604 14.1637 11.0688 14.5599 11.194 14.9202L11.4163 15.5643C11.5441 15.9323 11.9479 16.1291 12.316 16.0013L19.9524 13.3612C21.2507 10.2177 24.4351 8.26005 27.7422 8.26005C29.1836 8.26005 30.5407 8.64851 31.5732 9.24655C36.8431 12.0016 34.4842 19.3697 30.0015 17.8184C28.7134 17.0108 28.3351 16.3386 28.3351 14.8512C28.307 14.6851 28.5754 13.8673 28.6239 13.7778L22.3803 20.3843C25.1073 25.0587 30.1522 24.5655 33.421 20.553L35.394 20.5632C34.0676 23.602 31.1362 25.7206 27.7422 25.7206C25.6772 25.7206 23.7809 24.9335 22.3164 23.6352V27.7857H25.9098C26.8247 27.7857 27.6093 27.9569 28.2712 28.2993C28.9306 28.6418 29.4417 29.1223 29.8021 29.7408C30.1625 30.3592 30.3439 31.0774 30.3439 31.8952C30.3439 32.7131 30.1625 33.4312 29.8021 34.0497C29.4417 34.6682 28.9306 35.1486 28.2712 35.4911C27.6119 35.8336 26.8247 36.0048 25.9098 36.0048H19.7275V22.5413H15.917V33.0172H13.0878V22.5413H8.08115V19.8093H19.8067C19.523 18.9429 19.362 18.0177 19.3569 17.0568C19.3365 16.7041 19.3365 16.3616 19.3569 16.0268C17.2331 17.0312 14.5445 18.2452 13.1312 18.6516C12.1984 18.9199 11.2144 18.9378 10.3174 18.5672L6.84163 17.1309C5.62001 16.6249 4.25525 16.5865 3.00296 17.0185L0.161011 17.936C0.0587825 18.764 0 19.6048 0 20.461C0 31.7572 9.15709 40.9169 20.4559 40.9169C31.7547 40.9169 40.9118 31.7598 40.9118 20.461C40.9118 9.16221 31.7598 0 20.461 0Z" fill="#DA1E2A"/>
	<path fill-rule="evenodd" clip-rule="evenodd" d="M27.7269 31.8901C27.7269 31.3151 27.5531 30.8602 27.2029 30.5228C26.8528 30.1855 26.3775 30.0168 25.7794 30.0168H22.3216V33.7609H25.7794C26.3775 33.7609 26.8528 33.5922 27.2029 33.2549C27.5531 32.9175 27.7269 32.4626 27.7269 31.8876V31.8901Z" fill="#DA1E2A"/>
	<rect x="17.5815" y="37.5605" width="6.39326" height="26.3722" rx="3.19663" fill="#DA1E2A"/>
</svg>
